<?xml version="1.0" encoding="UTF-8"?>
<svg id="Layer_1" data-name="Layer 1" xmlns="http://www.w3.org/2000/svg" viewBox="0 0 229.57 153.2">
  <defs>
    <style>
      .cls-1 {
        fill: #3d2e29;
      }
    </style>
  </defs>
  <g id="_0bwhoo.tif" data-name="0bwhoo.tif">
    <g>
      <path class="cls-1" d="M156.12,149.38c-.13.62-.33,1.32-.54,1.87l-14.57-.05c-2.98,0-5.85-.33-8.73-.84-3.25-.57-6.24-2.02-8.46-4.46-4.57-5.04-6.96-14.24-8.83-20.84l-11.35-40.03-5.89,6.17-10.3,46.81c-.88,4.01-2.16,9.33,2.89,10.58,3.15.78,6.19.76,9.54.8.02.62-.31,1.64-.83,1.83h-54.53c-.04-.65.34-1.7.79-1.86,4.15.16,10.74-.43,13.32-4.01,1.38-1.92,2.23-4.07,2.75-6.52l24.47-114.91c.41-1.92.23-3.87-.97-5.26-2.17-2.51-8.69-2.09-11.89-2.31-.04-.57.09-1.23.4-1.8h53.39c.18.51,0,1.38-.33,1.85-4.18.02-10.65.14-13.18,4.01-1.07,2.01-1.76,3.9-2.24,6.22l-12.66,61.1,41.85-43.65c3.02-3.17,5.71-6.22,8.2-9.73,2.58-3.86,5.97-12.91.79-15.84-1.67-.95-3.6-1.62-5.55-1.73l-6.41-.38c-.17-.42-.05-1.16.24-1.85h43.22c-.03.72-.28,1.37-.66,1.94-5-.07-9.55,1.61-13.58,4.57-5.08,3.72-9.27,8.08-13.6,12.7l-27.77,29.59,18.31,61.51,5.75,18.03c1.37,2.97,2.45,6.93,6.98,6.47Z"/>
      <path class="cls-1" d="M211.23,150.42c-5.75,3.34-15.18,3.42-21.24,1.53-9.57-2.99-11.55-12.58-10.71-21.55.49-5.23,1.28-10.11,2.34-15.28l10.13-49.1c.74-3.59,1.21-7,1.07-10.55-.22-5.59-6.55-4.67-10.6-4.99-.26-.04-.05-1.85.42-1.85h38.59s-16.34,76.2-16.34,76.2c-1.28,5.99-2.93,14.8-1.42,20.57.53,2.04,2.24,3.3,4.42,3.17,5.31-.31,9.49-5.62,13.04-9.45.51.36.99.97,1.33,1.71-3.21,3.7-6.68,7.04-11.05,9.58Z"/>
      <path class="cls-1" d="M33.46,149.63c-6.02,4.03-15.84,4.4-22.48,2.33-9.53-2.97-11.64-12.37-10.82-21.28.44-4.77,1.07-9.25,2.05-14l10.64-51.65c.69-3.34,1.02-6.52.86-9.81-.26-5.21-6.56-4.52-10.53-4.71-.22-.42-.12-1.2.26-1.91l38.71.02-16.62,77.51c-1.14,5.3-1.83,10.35-1.74,15.74.22,1.84.43,3.75,1.47,5.27,1.76,2.58,6.79,1.3,9.54-1.04,1.5-1.27,3-2.57,4.31-3.98l2.86-3.08,1.3,1.75c-3.07,3.33-6.06,6.31-9.81,8.82Z"/>
      <path class="cls-1" d="M39.95,26.91c-5.77,2.97-13.48,3.55-18.91-.59-3.36-2.57-3.35-7.54-2.61-11.33s3.02-6.23,6.26-7.86c5.18-2.6,11.26-3.2,16.6-.88,4.76,2.07,5.89,5.38,5.56,10.32-.3,4.62-2.85,8.25-6.91,10.34Z"/>
    </g>
  </g>
  <g id="UtrZTk.tif">
    <path class="cls-1" d="M213.66,31.46l-1.83-2.51-1.83,2.51c-2.08,2.86-6.09,3.48-8.95,1.4h0c-2.86-2.08-3.48-6.09-1.4-8.94l1.83-2.52-2.96-.96c-3.37-1.1-5.21-4.71-4.12-8.08h0c1.09-3.38,4.72-5.23,8.09-4.13l2.93.95v-2.78C205.43,2.86,208.3,0,211.83,0h0c3.53,0,6.4,2.86,6.4,6.39v2.78s2.94-.96,2.94-.96c3.38-1.1,7,.75,8.09,4.13h0c1.09,3.37-.75,6.98-4.12,8.08l-2.96.96,1.83,2.51c2.08,2.86,1.45,6.86-1.4,8.94h0c-2.86,2.08-6.86,1.46-8.95-1.4Z"/>
  </g>
</svg>